<?xml version="1.0" encoding="UTF-8"?>
<svg id="Layer_2" data-name="Layer 2" xmlns="http://www.w3.org/2000/svg" xmlns:xlink="http://www.w3.org/1999/xlink" viewBox="0 0 636.22 341.29">
  <defs>
    <style>
      .cls-1 {
        font-family: OpenSans-Bold, 'Open Sans';
        font-size: 60.54px;
        font-weight: 700;
      }

      .cls-1, .cls-2 {
        fill: #fff;
      }

      .cls-3 {
        fill: #00a44a;
      }

      .cls-4 {
        mask: url(#mask);
      }

      .cls-5 {
        stroke: #478df6;
        stroke-miterlimit: 10;
        stroke-width: 1.38px;
      }

      .cls-5, .cls-6 {
        fill: none;
      }

      .cls-7 {
        fill: #00e7ff;
      }

      .cls-8 {
        fill: #e31e26;
      }

      .cls-9 {
        fill: #000083;
      }

      .cls-10 {
        clip-path: url(#clippath-1);
      }

      .cls-11 {
        font-family: OpenSans-Semibold, 'Open Sans';
        font-size: 31.32px;
        font-weight: 600;
        letter-spacing: .3em;
      }

      .cls-11, .cls-12 {
        fill: #478df6;
      }

      .cls-13 {
        fill: #202f81;
      }

      .cls-14 {
        fill: #ff5722;
      }

      .cls-15 {
        fill: #62a0d6;
      }

      .cls-16 {
        clip-path: url(#clippath);
      }
    </style>
    <clipPath id="clippath">
      <circle class="cls-6" cx="190.84" cy="53.83" r="25.04"/>
    </clipPath>
    <clipPath id="clippath-1">
      <rect class="cls-6" x="317.57" y="17.24" width="164.7" height="73.72"/>
    </clipPath>
    <mask id="mask" x="317.57" y="17.06" width="164.7" height="73.72" maskUnits="userSpaceOnUse">
      <g id="mask1_3224_279" data-name="mask1 3224 279">
        <path class="cls-2" d="M482.27,17.06h-164.7v73.72h164.7V17.06Z"/>
      </g>
    </mask>
  </defs>
  <g id="Layer_1-2" data-name="Layer 1">
    <g>
      <g>
        <g>
          <path class="cls-2" d="M190.69,17.26h254.49c20.29,0,36.74,16.45,36.74,36.74h0c0,20.29-16.45,36.74-36.74,36.74h-254.49c-20.29,0-36.74-16.45-36.74-36.74h0c0-20.29,16.45-36.74,36.74-36.74Z"/>
          <rect x="316.87" y="29.3" width="1.22" height="49.56"/>
          <g>
            <g>
              <path class="cls-9" d="M237.4,51.89c-2.16-.82-3.86-1.47-3.86-2.83,0-1.25.96-2.07,2.45-2.07,1.23,0,2.52.6,3.66,1.12.77.36,1.49.69,1.92.69,1.32,0,2.21-1.26,2.21-2.43,0-2.71-4.32-4.16-7.44-4.16-4.76,0-8.09,2.85-8.09,6.92s3.87,5.59,6.98,6.77c2.14.81,3.83,1.44,3.83,2.78,0,1.48-.84,2.11-2.8,2.11-1.63,0-2.74-.63-3.72-1.18-.85-.48-1.66-.94-2.72-.94-1.54,0-2.34,1.7-2.34,2.43,0,2.54,5.06,4.46,8.35,4.46,5.02,0,8.52-2.86,8.52-6.97s-3.85-5.55-6.94-6.72Z"/>
              <path class="cls-9" d="M266.23,58.3c-.6,0-1.35.42-2.22.9-1.28.71-2.88,1.6-4.83,1.6-3.42,0-5.8-1.83-6.21-4.78-.01-.1.02-.19.08-.27.06-.07.16-.12.25-.12h13.27c1.67,0,2.38-.73,2.38-2.43,0-5.2-4.46-10.98-10.85-10.98-5.31,0-10.81,4.38-10.81,11.72,0,6.85,4.66,11.63,11.33,11.63,4.68,0,9.82-2.58,9.82-4.93,0-1.18-1.1-2.34-2.21-2.34ZM252.84,51.79c.34-2.97,2.51-5.05,5.26-5.05s4.91,1.93,5.3,5.05c.01.1-.02.19-.08.27-.06.07-.16.11-.25.11h-9.9c-.1,0-.19-.04-.25-.11-.06-.07-.09-.17-.08-.26Z"/>
              <path class="cls-9" d="M293.83,46.21c0-2.04-.2-3.72-2.64-3.72-1.36,0-2.5.99-2.65,2.29-.02.14-.12.25-.25.29-.14.03-.28-.02-.36-.13-1.22-1.72-3.28-2.71-5.64-2.71-5.58,0-9.95,5.15-9.95,11.72s4.18,11.63,9.95,11.63c2.24,0,4.09-.91,5.66-2.77.08-.1.21-.14.33-.11.12.03.22.12.25.24.45,1.72,1.2,2.38,2.66,2.38,2.45,0,2.64-1.69,2.64-3.72v-15.38ZM283.15,60.54c-3.46,0-5.26-3.32-5.26-6.6s1.65-6.69,5.26-6.69c3.37,0,5.13,3.37,5.13,6.69s-1.76,6.6-5.13,6.6Z"/>
            </g>
            <g>
              <path class="cls-9" d="M235.5,73.59c-.19.67-.8,1.18-1.57,1.18-1.01,0-1.66-.78-1.66-1.64,0-.92.7-1.64,1.63-1.64.74,0,1.41.46,1.6,1.2h-.61c-.16-.42-.55-.65-.97-.65-.31,0-.54.1-.76.3-.18.18-.3.47-.3.79,0,.64.47,1.09,1.06,1.09.52,0,.84-.32.97-.63h.61Z"/>
              <path class="cls-9" d="M235.9,73.12c0-.83.61-1.63,1.65-1.63s1.65.81,1.65,1.64-.61,1.63-1.65,1.63-1.65-.8-1.65-1.63h0ZM236.49,73.13c0,.62.47,1.08,1.06,1.08s1.06-.46,1.06-1.08-.47-1.08-1.06-1.08-1.06.46-1.06,1.08h0Z"/>
              <path class="cls-9" d="M239.81,71.58h.56v.48c.15-.32.5-.58,1.05-.57.99.01,1.25.73,1.25,1.37v1.82h-.6v-1.68c0-.56-.22-.96-.82-.95-.58,0-.85.37-.85.91v1.73h-.59v-3.1Z"/>
              <path class="cls-9" d="M243.43,71.58h.56v.48c.15-.32.5-.58,1.05-.57.99.01,1.25.73,1.25,1.37v1.82h-.6v-1.68c0-.56-.22-.96-.82-.95-.58,0-.85.37-.85.91v1.73h-.59v-3.1Z"/>
              <path class="cls-9" d="M247.43,73.31c.03.63.58.95,1.04.95.42,0,.72-.2.89-.52h.62c-.15.34-.36.6-.63.77-.26.18-.57.26-.88.26-1.01,0-1.64-.81-1.64-1.63,0-.89.69-1.65,1.63-1.65.44,0,.85.17,1.14.46.36.37.52.85.47,1.37h-2.65ZM249.49,72.85c-.03-.41-.44-.87-1.03-.86-.6,0-1,.44-1.03.86h2.05Z"/>
              <path class="cls-9" d="M253.71,73.59c-.19.67-.8,1.18-1.57,1.18-1.01,0-1.66-.78-1.66-1.64,0-.92.7-1.64,1.63-1.64.74,0,1.41.46,1.6,1.2h-.61c-.16-.42-.55-.65-.97-.65-.31,0-.54.1-.76.3-.18.18-.3.47-.3.79,0,.64.47,1.09,1.06,1.09.52,0,.84-.32.97-.63h.61Z"/>
              <path class="cls-9" d="M254.51,72.04h-.56v-.46h.56v-1.12h.59v1.12h.6v.46h-.6v2.64h-.59v-2.64Z"/>
              <path class="cls-9" d="M256.14,70.46h.59v.63h-.59v-.63ZM256.14,71.58h.59v3.1h-.59v-3.1Z"/>
              <path class="cls-9" d="M257.51,71.58h.56v.48c.15-.32.5-.58,1.05-.57.99.01,1.25.73,1.25,1.37v1.82h-.6v-1.68c0-.56-.22-.96-.82-.95-.58,0-.85.37-.85.91v1.73h-.59v-3.1Z"/>
              <path class="cls-9" d="M264.26,74.32c0,.54-.14.89-.36,1.15-.28.33-.77.56-1.3.56-.88,0-1.39-.51-1.54-1.03h.68c.07.14.19.26.34.36.19.13.4.16.54.16.52,0,1.05-.38,1.05-1.08v-.32c-.18.35-.56.64-1.12.64-.93,0-1.6-.71-1.6-1.63,0-.97.7-1.65,1.6-1.65.52,0,.95.27,1.12.62v-.52h.59v2.74ZM261.55,73.13c0,.58.42,1.09,1.07,1.09.31,0,.58-.12.76-.31.18-.19.3-.46.3-.76,0-.24-.08-.52-.25-.73-.17-.22-.44-.36-.81-.36-.59,0-1.07.44-1.07,1.08h0Z"/>
              <path class="cls-9" d="M266.93,72.04h-.56v-.46h.56v-1.12h.59v1.12h.6v.46h-.6v2.64h-.59v-2.64Z"/>
              <path class="cls-9" d="M268.57,70.46h.59v1.55c.18-.36.6-.53,1.01-.52.48,0,.79.16.99.43.19.27.27.64.27,1.07v1.69h-.6v-1.66c0-.28-.05-.52-.18-.69-.14-.17-.34-.27-.65-.27s-.53.12-.66.28c-.13.16-.19.39-.19.6v1.75h-.59v-4.21Z"/>
              <path class="cls-9" d="M272.57,73.31c.03.63.58.95,1.04.95.42,0,.72-.2.89-.52h.62c-.15.34-.36.6-.63.77-.26.18-.57.26-.88.26-1.01,0-1.64-.81-1.64-1.63,0-.89.69-1.65,1.63-1.65.44,0,.85.17,1.14.46.36.37.52.85.47,1.37h-2.65ZM274.63,72.85c-.03-.41-.44-.87-1.03-.86-.6,0-1,.44-1.03.86h2.05Z"/>
              <path class="cls-9" d="M280.61,74.67h-.57v-.54c-.17.32-.52.63-1.16.63-.97,0-1.59-.75-1.59-1.65,0-.96.69-1.63,1.58-1.63.63,0,1.02.35,1.14.6v-1.62h.59v4.21ZM277.89,73.13c0,.57.4,1.09,1.09,1.09.3,0,.58-.13.77-.32.2-.2.31-.47.3-.78,0-.31-.12-.58-.31-.76-.19-.19-.46-.31-.76-.31-.66,0-1.09.5-1.09,1.08h0Z"/>
              <path class="cls-9" d="M281.22,73.12c0-.83.61-1.63,1.65-1.63s1.65.81,1.65,1.64-.61,1.63-1.65,1.63-1.65-.8-1.65-1.63h0ZM281.81,73.13c0,.62.47,1.08,1.06,1.08s1.06-.46,1.06-1.08-.47-1.08-1.06-1.08-1.06.46-1.06,1.08h0Z"/>
              <path class="cls-9" d="M285.35,72.04h-.56v-.46h.56v-1.12h.59v1.12h.6v.46h-.6v2.64h-.59v-2.64Z"/>
              <path class="cls-9" d="M288.35,72.38c0-.24-.15-.42-.45-.42-.29,0-.45.19-.44.4.01.24.23.36.56.45.47.13.99.27,1.01.93.01.6-.49,1.01-1.1,1.01-.49,0-1.1-.28-1.13-.99h.59c.02.38.32.5.55.5.28,0,.51-.2.51-.46,0-.31-.24-.41-.79-.59-.43-.13-.77-.34-.78-.8,0-.59.48-.94,1.04-.94.43,0,.99.21,1.03.9h-.59Z"/>
            </g>
            <g class="cls-16">
              <g>
                <rect class="cls-14" x="162.4" y="26.88" width="57.12" height="44.37"/>
                <path class="cls-3" d="M230.07,45.09c-4.47-1.82-8.77-2.7-12.38-3.08-.69-.09-2.4-.27-4.79-.26-2.39,0-4.09.17-4.79.26-3.61.38-7.92,1.26-12.38,3.08-4.3,1.76-8.45,2.63-11.98,3.04h0s-.05,0-.14.02c-1.88.21-3.57.29-5.02.29-1.45,0-3.14-.08-5.02-.29-.09-.01-.14-.02-.14-.02h0c-3.53-.4-7.68-1.27-11.98-3.03-4.47-1.82-8.77-2.7-12.38-3.08-.69-.09-2.4-.27-4.79-.26-2.39,0-4.09.17-4.79.26-3.61.38-7.92,1.26-12.38,3.08-11.72,4.78-22.3,3.03-22.3,3.03v32.24h147.55v-32.24s-10.58,1.75-22.3-3.03Z"/>
                <path class="cls-7" d="M255.04,45.09c-4.47-1.82-8.77-2.7-12.38-3.08-.69-.09-2.4-.27-4.79-.26-2.39,0-4.09.17-4.79.26-3.61.38-7.92,1.26-12.38,3.08-4.3,1.76-8.45,2.63-11.98,3.04h0s-.05,0-.14.02c-1.88.21-3.57.29-5.02.29-1.45,0-3.14-.08-5.02-.29-.09-.01-.14-.02-.14-.02h0c-3.53-.4-7.68-1.27-11.98-3.03-4.47-1.82-8.77-2.7-12.38-3.08-.69-.09-2.4-.27-4.79-.26-2.39,0-4.09.17-4.79.26-3.61.38-7.92,1.26-12.38,3.08-11.72,4.78-22.3,3.03-22.3,3.03v32.24h147.55v-32.24s-10.58,1.75-22.3-3.03Z"/>
                <path class="cls-8" d="M161.05,35.27c4.47,1.82,8.77,2.7,12.38,3.08.69.09,2.4.27,4.79.26,2.39,0,4.09-.17,4.79-.26,3.61-.38,7.92-1.26,12.38-3.08,4.3-1.76,8.45-2.63,11.98-3.04h0s.05,0,.14-.02c1.88-.21,3.57-.29,5.02-.29,1.45,0,3.14.08,5.02.29.09.01.14.02.14.02h0c3.53.4,7.68,1.27,11.98,3.03,4.47,1.82,8.77,2.7,12.38,3.08.69.09,2.4.27,4.79.26,2.39,0,4.09-.17,4.79-.26,3.61-.38,7.92-1.26,12.38-3.08,11.72-4.78,22.3-3.03,22.3-3.03V0h-147.55v32.24s10.58-1.75,22.3,3.03Z"/>
                <path class="cls-12" d="M231.93,55.79c-4.47-1.82-8.77-2.7-12.38-3.08-.69-.09-2.4-.27-4.79-.26-2.39,0-4.09.17-4.79.26-3.61.38-7.92,1.26-12.38,3.08-4.3,1.76-8.45,2.63-11.98,3.04h0s-.05,0-.14.02c-1.88.21-3.57.29-5.02.29-1.45,0-3.14-.08-5.02-.29-.09-.01-.14-.02-.14-.02h0c-3.53-.4-7.68-1.27-11.98-3.03-4.47-1.82-8.77-2.7-12.38-3.08-.69-.09-2.4-.27-4.79-.26-2.39,0-4.09.17-4.79.26-3.61.38-7.92,1.26-12.38,3.08-11.72,4.78-22.3,3.03-22.3,3.03v32.24h147.55v-32.24s-10.58,1.75-22.3-3.03Z"/>
                <path class="cls-9" d="M254.71,67.55c-4.47-1.82-8.77-2.7-12.38-3.08-.69-.09-2.4-.27-4.79-.26-2.39,0-4.09.17-4.79.26-3.61.38-7.92,1.26-12.38,3.08-4.3,1.76-8.45,2.63-11.98,3.04h0s-.05,0-.14.02c-1.88.21-3.57.29-5.02.29-1.45,0-3.14-.08-5.02-.29-.09-.01-.14-.02-.14-.02h0c-3.53-.4-7.68-1.27-11.98-3.03-4.47-1.82-8.77-2.7-12.38-3.08-.69-.09-2.4-.27-4.79-.26-2.39,0-4.09.17-4.79.26-3.61.38-7.92,1.26-12.38,3.08-11.72,4.78-22.3,3.03-22.3,3.03v32.24h147.55v-32.24s-10.58,1.75-22.3-3.03Z"/>
              </g>
            </g>
          </g>
        </g>
        <g class="cls-10">
          <g class="cls-4">
            <g>
              <path d="M354.43,41.64c-6.76,0-12.29,5.53-12.29,12.29s5.53,12.29,12.29,12.29,12.29-5.5,12.29-12.29-5.5-12.29-12.29-12.29ZM354.43,61.81c-4.2,0-7.58-3.45-7.58-7.88s3.38-7.88,7.58-7.88,7.58,3.45,7.58,7.88-3.38,7.88-7.58,7.88Z"/>
              <path d="M379.14,48.46c-2.22,0-4.37.89-5.5,2.39v-2.05h-4.44v23.89h4.44v-8.63c1.13,1.4,3.21,2.15,5.5,2.15,4.78,0,8.53-3.75,8.53-8.87s-3.75-8.87-8.53-8.87h0ZM378.39,62.35c-2.53,0-4.78-1.98-4.78-5.02s2.25-5.02,4.78-5.02,4.78,1.98,4.78,5.02-2.25,5.02-4.78,5.02Z"/>
              <path d="M398.12,48.46c-4.85,0-8.67,3.79-8.67,8.87s3.34,8.87,8.8,8.87c4.47,0,7.34-2.7,8.23-5.73h-4.33c-.55,1.26-2.08,2.15-3.93,2.15-2.29,0-4.03-1.6-4.44-3.89h12.9v-1.74c0-4.64-3.24-8.53-8.57-8.53h0ZM393.82,55.59c.48-2.15,2.25-3.55,4.4-3.55,2.29,0,4.03,1.5,4.23,3.55h-8.64Z"/>
              <path d="M418.49,48.46c-1.98,0-4.06.89-5.02,2.35v-2.01h-4.44v17.06h4.44v-9.18c0-2.66,1.43-4.4,3.75-4.4,2.15,0,3.31,1.64,3.31,3.93v9.66h4.44v-10.37c0-4.23-2.59-7.03-6.48-7.03h0Z"/>
              <path d="M436.34,41.98l-9.66,23.89h4.74l2.05-5.22h10.99l2.05,5.22h4.81l-9.59-23.89h-5.39ZM435.01,56.69l3.96-10,3.92,10h-7.88Z"/>
              <path d="M457.63,41.98h-4.5v23.89h4.5v-23.89Z"/>
            </g>
          </g>
        </g>
      </g>
      <g>
        <g>
          <g>
            <path class="cls-13" d="M187.08,286.7c-15.55-.05-28.15-12.67-28.15-28.12s12.62-28.1,28.13-28.1h.8c5.66,0,10.99,2.17,15.01,6.1l.56.54,6.47-6.83c-1.9-2.02-4.13-3.75-6.02-4.85-4.83-2.81-10.29-4.43-15.98-4.43h-.83c-20.46,0-37.17,16.45-37.58,36.81h-3.86c.41-22.49,18.83-40.66,41.42-40.66h.85c6.4,0,12.62,1.78,18.06,5.03,2.87,1.71,6.79,5.22,9.24,8.13l-11.73,12.29c-1.23-1.47-3.69-3.71-4.89-4.63-3.04-2.34-6.78-3.62-10.73-3.62h-.8c-13.38,0-24.27,10.87-24.27,24.23s10.85,24.22,24.2,24.26c.32,0,.55,0,.77,0,7.45,0,14.6-2.6,20.13-7.32,1.9-1.62,3.59-3.45,5.04-5.44l.53-.73-8.64-4.33-.39.47c-1.03,1.26-2.21,2.41-3.52,3.42-3.68,2.86-8.31,4.43-13.02,4.43-.45,0-.89-.01-1.34-.04-7.79-.27-13.93-6.39-14.31-14.08h3.87c.38,5.59,4.88,10.02,10.57,10.21.37.02.75.03,1.13.03,3.98,0,7.69-1.25,10.74-3.61,1.6-1.24,2.96-2.71,4.04-4.37l.94-1.45,15.41,7.73-1.05,1.78c-1.97,3.35-4.49,6.35-7.49,8.91-6.23,5.32-14.23,8.25-22.53,8.25-.26,0-.52,0-.79,0Z"/>
            <polygon class="cls-13" points="384.63 284.92 384.63 222.81 368.55 222.81 368.55 232.49 375 232.49 375 236.35 364.69 236.35 364.69 218.95 388.49 218.95 388.49 281.06 398.17 281.06 398.17 232.49 418.07 232.49 418.07 222.8 398.13 222.8 398.13 218.94 421.94 218.94 421.94 236.35 402.03 236.35 402.03 284.92 384.63 284.92"/>
            <polygon class="cls-13" points="43.05 284.91 43.05 246.98 14.77 246.98 14.77 222.8 5.13 222.8 5.13 281.05 14.81 281.05 14.77 256.65 33.41 256.65 33.41 260.51 18.64 260.51 18.68 284.91 1.27 284.91 1.27 218.94 18.63 218.94 18.63 243.12 46.91 243.12 46.91 281.05 56.55 281.05 56.55 222.8 46.73 222.8 46.73 233.48 42.87 233.48 42.87 218.94 60.41 218.94 60.41 284.91 43.05 284.91"/>
            <polygon class="cls-13" points="474.57 284.91 474.57 246.98 446.29 246.98 446.29 222.8 436.65 222.8 436.65 281.05 446.33 281.05 446.29 256.65 464.93 256.65 464.93 260.51 450.16 260.51 450.2 284.91 432.79 284.91 432.79 218.94 450.15 218.94 450.15 243.12 478.43 243.12 478.43 281.05 488.07 281.05 488.07 222.8 478.25 222.8 478.25 233.48 474.39 233.48 474.39 218.94 491.93 218.94 491.93 284.91 474.57 284.91"/>
            <polygon class="cls-13" points="228.49 284.93 228.61 219.04 245.28 219.04 273.19 281.04 283.8 281.04 268.84 247.93 283.18 222.83 271.99 222.83 263.96 236.88 262 232.52 269.75 218.96 289.84 218.96 273.17 248.14 289.79 284.91 270.69 284.91 242.78 222.9 232.47 222.9 232.36 281.07 242.04 281.07 242.04 244.73 245.91 253.3 245.91 284.93 228.49 284.93"/>
            <polygon class="cls-13" points="123.25 274.31 127.36 274.31 129.82 281.02 140.19 281.03 118.62 222.79 112.91 222.79 102.39 251.1 118.75 251.1 125.18 268.49 95.97 268.49 89.9 284.87 71.31 284.87 95.69 218.93 99.81 218.93 76.86 281.01 87.21 281.01 93.28 264.63 119.63 264.63 116.06 254.96 96.84 254.97 110.22 218.93 121.31 218.93 145.74 284.9 127.13 284.91 123.25 274.31"/>
            <polygon class="cls-13" points="347.72 274.31 351.84 274.31 354.3 281.02 364.67 281.03 343.1 222.79 337.39 222.79 326.87 251.1 343.23 251.1 349.65 268.49 320.45 268.49 314.38 284.87 295.79 284.87 320.17 218.93 324.29 218.93 301.33 281.01 311.69 281.01 317.76 264.63 344.11 264.63 340.54 254.96 321.32 254.97 334.7 218.93 345.79 218.93 370.22 284.9 351.61 284.91 347.72 274.31"/>
            <polygon class="cls-13" points="618.56 284.76 590.32 223.05 579.99 223.05 579.99 280.93 589.64 280.93 589.64 243.79 608.43 284.76 604.21 284.76 593.49 261.4 593.47 284.76 576.15 284.76 576.15 219.21 592.79 219.21 621.03 280.93 631.36 280.93 631.36 223.05 621.71 223.05 621.71 259.4 617.87 251.02 617.87 219.21 635.2 219.21 635.2 284.76 618.56 284.76"/>
            <path class="cls-13" d="M534.67,284.59c-7.89,0-15.46-2.75-21.29-7.75-7.32-6.27-11.53-15.37-11.53-24.97,0-9.64,4.23-18.75,11.58-25.01,5.85-4.99,13.39-7.74,21.22-7.74s15.39,2.75,21.24,7.75c7.35,6.27,11.56,15.38,11.56,25,0,.68-.02,1.27-.05,1.79h-16.15c.13-6.48-2.06-11.51-6.54-14.97-2.82-2.18-6.4-3.38-10.08-3.38s-7.1,1.15-9.87,3.24c-4.2,3.16-6.64,7.95-6.7,13.15-.06,5.19,2.28,10.03,6.4,13.27,2.67,2.09,5.9,3.29,9.35,3.46h.11v3.6h-.28c-4.2-.22-8.13-1.68-11.39-4.23-4.94-3.88-7.77-9.68-7.77-15.91v-.21c.07-6.32,3.03-12.14,8.13-15.98,3.48-2.62,7.64-4,12.03-4s8.79,1.48,12.27,4.18c4.36,3.37,7.11,8.2,7.76,13.59l.08.63h9.07l-.07-.78c-.68-7.67-4.3-14.67-10.19-19.7-5.21-4.45-11.93-6.9-18.91-6.9s-13.68,2.45-18.89,6.89c-6.55,5.59-10.31,13.7-10.32,22.25,0,8.58,3.74,16.68,10.27,22.27,5.2,4.45,11.93,6.9,18.96,6.9s13.3-2.3,18.4-6.47c3.32-2.72,6.09-5.8,8.74-11.89h3.82c-2.55,7.51-7.5,12.39-10.29,14.67-5.73,4.68-13.07,7.26-20.67,7.26Z"/>
          </g>
          <g>
            <path class="cls-13" d="M187.08,286.69c-15.55-.05-28.15-12.67-28.15-28.12s12.62-28.1,28.13-28.1h.8c5.66,0,10.99,2.17,15.01,6.1l.56.54,6.47-6.83c-1.9-2.02-4.13-3.75-6.02-4.85-4.83-2.81-10.29-4.43-15.98-4.43h-.83c-20.46,0-37.17,16.45-37.58,36.81h-3.86c.41-22.49,18.83-40.66,41.42-40.66h.85c6.4,0,12.62,1.78,18.06,5.03,2.87,1.71,6.79,5.22,9.24,8.13l-11.73,12.29c-1.23-1.47-3.69-3.71-4.89-4.63-3.04-2.34-6.78-3.62-10.73-3.62h-.8c-13.38,0-24.27,10.87-24.27,24.23s10.85,24.22,24.2,24.26c.32,0,.55,0,.77,0,7.45,0,14.6-2.6,20.13-7.32,1.9-1.62,3.59-3.45,5.04-5.44l.53-.73-8.64-4.33-.39.47c-1.03,1.26-2.21,2.41-3.52,3.42-3.68,2.86-8.31,4.43-13.02,4.43-.45,0-.89-.01-1.34-.04-7.79-.27-13.93-6.39-14.31-14.08h3.87c.38,5.59,4.88,10.02,10.57,10.21.37.02.75.03,1.13.03,3.98,0,7.69-1.25,10.74-3.61,1.6-1.24,2.96-2.71,4.04-4.37l.94-1.45,15.41,7.73-1.05,1.78c-1.97,3.35-4.49,6.35-7.49,8.91-6.23,5.32-14.23,8.25-22.53,8.25-.26,0-.52,0-.79,0Z"/>
            <polygon class="cls-13" points="384.63 284.91 384.63 222.8 368.55 222.8 368.55 232.48 375 232.48 375 236.34 364.69 236.34 364.69 218.94 388.49 218.94 388.49 281.05 398.17 281.05 398.17 232.48 418.07 232.48 418.07 222.79 398.13 222.79 398.13 218.93 421.94 218.93 421.94 236.34 402.03 236.34 402.03 284.91 384.63 284.91"/>
            <polygon class="cls-13" points="43.05 284.91 43.05 246.98 14.77 246.98 14.77 222.8 5.13 222.8 5.13 281.05 14.81 281.05 14.77 256.64 33.41 256.64 33.41 260.5 18.64 260.5 18.68 284.91 1.27 284.91 1.27 218.94 18.63 218.94 18.63 243.11 46.91 243.11 46.91 281.05 56.55 281.05 56.55 222.8 46.73 222.8 46.73 233.47 42.87 233.47 42.87 218.94 60.41 218.94 60.41 284.91 43.05 284.91"/>
            <polygon class="cls-13" points="474.57 284.91 474.57 246.98 446.29 246.98 446.29 222.8 436.65 222.8 436.65 281.05 446.33 281.05 446.29 256.64 464.93 256.64 464.93 260.5 450.16 260.5 450.2 284.91 432.79 284.91 432.79 218.94 450.15 218.94 450.15 243.11 478.43 243.11 478.43 281.05 488.07 281.05 488.07 222.8 478.25 222.8 478.25 233.47 474.39 233.47 474.39 218.94 491.93 218.94 491.93 284.91 474.57 284.91"/>
            <polygon class="cls-13" points="228.49 284.93 228.61 219.03 245.28 219.03 273.19 281.03 283.8 281.03 268.84 247.93 283.18 222.82 271.99 222.82 263.96 236.87 262 232.51 269.75 218.96 289.84 218.96 273.17 248.13 289.79 284.9 270.69 284.9 242.78 222.89 232.47 222.89 232.36 281.06 242.04 281.06 242.04 244.72 245.91 253.29 245.91 284.93 228.49 284.93"/>
            <polygon class="cls-13" points="123.25 274.3 127.36 274.3 129.82 281.01 140.19 281.02 118.62 222.78 112.91 222.78 102.39 251.1 118.75 251.09 125.18 268.48 95.97 268.49 89.9 284.86 71.31 284.86 95.69 218.92 99.81 218.92 76.86 281.01 87.21 281.01 93.28 264.63 119.63 264.62 116.06 254.95 96.84 254.96 110.22 218.92 121.31 218.92 145.74 284.89 127.13 284.9 123.25 274.3"/>
            <polygon class="cls-13" points="347.72 274.3 351.84 274.3 354.3 281.01 364.67 281.02 343.1 222.78 337.39 222.78 326.87 251.1 343.23 251.09 349.65 268.48 320.45 268.49 314.38 284.86 295.79 284.86 320.17 218.92 324.29 218.92 301.33 281.01 311.69 281.01 317.76 264.63 344.11 264.62 340.54 254.95 321.32 254.96 334.7 218.92 345.79 218.92 370.22 284.89 351.61 284.9 347.72 274.3"/>
            <polygon class="cls-13" points="618.56 284.75 590.32 223.04 579.99 223.04 579.99 280.92 589.64 280.92 589.64 243.78 608.43 284.75 604.21 284.75 593.49 261.39 593.47 284.75 576.15 284.75 576.15 219.2 592.79 219.2 621.03 280.92 631.36 280.92 631.36 223.04 621.71 223.04 621.71 259.4 617.87 251.01 617.87 219.2 635.2 219.2 635.2 284.75 618.56 284.75"/>
            <path class="cls-13" d="M534.67,284.59c-7.89,0-15.46-2.75-21.29-7.75-7.32-6.27-11.53-15.37-11.53-24.97,0-9.64,4.23-18.75,11.58-25.01,5.85-4.99,13.39-7.74,21.22-7.74s15.39,2.75,21.24,7.75c7.35,6.27,11.56,15.38,11.56,25,0,.68-.02,1.27-.05,1.79h-16.15c.13-6.48-2.06-11.51-6.54-14.97-2.82-2.18-6.4-3.38-10.08-3.38s-7.1,1.15-9.87,3.24c-4.2,3.16-6.64,7.95-6.7,13.15-.06,5.19,2.28,10.03,6.4,13.27,2.67,2.09,5.9,3.29,9.35,3.46h.11v3.6h-.28c-4.2-.22-8.13-1.68-11.39-4.23-4.94-3.88-7.77-9.68-7.77-15.91v-.21c.07-6.32,3.03-12.14,8.13-15.98,3.48-2.62,7.64-4,12.03-4s8.79,1.48,12.27,4.18c4.36,3.37,7.11,8.2,7.76,13.59l.08.63h9.07l-.07-.78c-.68-7.67-4.3-14.67-10.19-19.7-5.21-4.45-11.93-6.9-18.91-6.9s-13.68,2.45-18.89,6.89c-6.55,5.59-10.31,13.7-10.32,22.25,0,8.58,3.74,16.68,10.27,22.27,5.2,4.45,11.93,6.9,18.96,6.9s13.3-2.3,18.4-6.47c3.32-2.72,6.09-5.8,8.74-11.89h3.82c-2.55,7.51-7.5,12.39-10.29,14.67-5.73,4.68-13.07,7.26-20.67,7.26Z"/>
          </g>
          <g>
            <path class="cls-13" d="M187.08,286.69c-15.55-.05-28.15-12.67-28.15-28.12s12.62-28.1,28.13-28.1h.8c5.66,0,10.99,2.17,15.01,6.1l.56.54,6.47-6.83c-1.9-2.02-4.13-3.75-6.02-4.85-4.83-2.81-10.29-4.43-15.98-4.43h-.83c-20.46,0-37.17,16.45-37.58,36.81h-3.86c.41-22.49,18.83-40.66,41.42-40.66h.85c6.4,0,12.62,1.78,18.06,5.03,2.87,1.71,6.79,5.22,9.24,8.13l-11.73,12.29c-1.23-1.47-3.69-3.71-4.89-4.63-3.04-2.34-6.78-3.62-10.73-3.62h-.8c-13.38,0-24.27,10.87-24.27,24.23s10.85,24.22,24.2,24.26c.32,0,.55,0,.77,0,7.45,0,14.6-2.6,20.13-7.32,1.9-1.62,3.59-3.45,5.04-5.44l.53-.73-8.64-4.33-.39.47c-1.03,1.26-2.21,2.41-3.52,3.42-3.68,2.86-8.31,4.43-13.02,4.43-.45,0-.89-.01-1.34-.04-7.79-.27-13.93-6.39-14.31-14.08h3.87c.38,5.59,4.88,10.02,10.57,10.21.37.02.75.03,1.13.03,3.98,0,7.69-1.25,10.74-3.61,1.6-1.24,2.96-2.71,4.04-4.37l.94-1.45,15.41,7.73-1.05,1.78c-1.97,3.35-4.49,6.35-7.49,8.91-6.23,5.32-14.23,8.25-22.53,8.25-.26,0-.52,0-.79,0Z"/>
            <polygon class="cls-13" points="384.63 284.9 384.63 222.79 368.55 222.79 368.55 232.47 375 232.47 375 236.33 364.69 236.33 364.69 218.93 388.49 218.93 388.49 281.04 398.17 281.04 398.17 232.47 418.07 232.47 418.07 222.79 398.13 222.79 398.13 218.93 421.94 218.93 421.94 236.33 402.03 236.33 402.03 284.9 384.63 284.9"/>
            <polygon class="cls-13" points="43.05 284.9 43.05 246.97 14.77 246.97 14.77 222.79 5.13 222.79 5.13 281.04 14.81 281.04 14.77 256.63 33.41 256.63 33.41 260.49 18.64 260.49 18.68 284.9 1.27 284.9 1.27 218.93 18.63 218.93 18.63 243.11 46.91 243.11 46.91 281.04 56.55 281.04 56.55 222.79 46.73 222.79 46.73 233.47 42.87 233.47 42.87 218.93 60.41 218.93 60.41 284.9 43.05 284.9"/>
            <polygon class="cls-13" points="474.57 284.9 474.57 246.97 446.29 246.97 446.29 222.79 436.65 222.79 436.65 281.04 446.33 281.04 446.29 256.63 464.93 256.63 464.93 260.49 450.16 260.49 450.2 284.9 432.79 284.9 432.79 218.93 450.15 218.93 450.15 243.11 478.43 243.11 478.43 281.04 488.07 281.04 488.07 222.79 478.25 222.79 478.25 233.47 474.39 233.47 474.39 218.93 491.93 218.93 491.93 284.9 474.57 284.9"/>
            <polygon class="cls-13" points="228.49 284.92 228.61 219.02 245.28 219.02 273.19 281.03 283.8 281.02 268.84 247.92 283.18 222.81 271.99 222.81 263.96 236.86 262 232.5 269.75 218.95 289.84 218.95 273.17 248.12 289.79 284.89 270.69 284.89 242.78 222.88 232.47 222.88 232.36 281.06 242.04 281.06 242.04 244.71 245.91 253.29 245.91 284.92 228.49 284.92"/>
            <polygon class="cls-13" points="123.25 274.3 127.36 274.3 129.82 281 140.19 281.02 118.62 222.77 112.91 222.77 102.39 251.09 118.75 251.08 125.18 268.48 95.97 268.48 89.9 284.86 71.31 284.86 95.69 218.91 99.81 218.91 76.86 281 87.21 281 93.28 264.62 119.63 264.61 116.06 254.94 96.84 254.95 110.22 218.92 121.31 218.92 145.74 284.88 127.13 284.89 123.25 274.3"/>
            <polygon class="cls-13" points="347.72 274.3 351.84 274.3 354.3 281 364.67 281.02 343.1 222.77 337.39 222.77 326.87 251.09 343.23 251.08 349.65 268.48 320.45 268.48 314.38 284.86 295.79 284.86 320.17 218.91 324.29 218.91 301.33 281 311.69 281 317.76 264.62 344.11 264.61 340.54 254.94 321.32 254.95 334.7 218.92 345.79 218.92 370.22 284.88 351.61 284.89 347.72 274.3"/>
            <polygon class="cls-13" points="618.56 284.75 590.32 223.03 579.99 223.03 579.99 280.91 589.64 280.91 589.64 243.77 608.43 284.74 604.21 284.74 593.49 261.38 593.47 284.75 576.15 284.75 576.15 219.2 592.79 219.2 621.03 280.91 631.36 280.91 631.36 223.03 621.71 223.03 621.71 259.39 617.87 251 617.87 219.2 635.2 219.2 635.2 284.75 618.56 284.75"/>
            <path class="cls-13" d="M534.67,284.58c-7.89,0-15.46-2.75-21.29-7.75-7.32-6.27-11.53-15.37-11.53-24.97,0-9.64,4.23-18.75,11.58-25.01,5.85-4.99,13.39-7.74,21.22-7.74s15.39,2.75,21.24,7.75c7.35,6.27,11.56,15.38,11.56,25,0,.68-.02,1.27-.05,1.79h-16.15c.13-6.48-2.06-11.51-6.54-14.97-2.82-2.18-6.4-3.38-10.08-3.38s-7.1,1.15-9.87,3.24c-4.2,3.16-6.64,7.95-6.7,13.15-.06,5.19,2.28,10.03,6.4,13.27,2.67,2.09,5.9,3.29,9.35,3.46h.11v3.6h-.28c-4.2-.22-8.13-1.68-11.39-4.23-4.94-3.88-7.77-9.68-7.77-15.91v-.21c.07-6.32,3.03-12.14,8.13-15.98,3.48-2.62,7.64-4,12.03-4s8.79,1.48,12.27,4.18c4.36,3.37,7.11,8.2,7.76,13.59l.08.63h9.07l-.07-.78c-.68-7.67-4.3-14.67-10.19-19.7-5.21-4.45-11.93-6.9-18.91-6.9s-13.68,2.45-18.89,6.89c-6.55,5.59-10.31,13.7-10.32,22.25,0,8.58,3.74,16.68,10.27,22.27,5.2,4.45,11.93,6.9,18.96,6.9s13.3-2.3,18.4-6.47c3.32-2.72,6.09-5.8,8.74-11.89h3.82c-2.55,7.51-7.5,12.39-10.29,14.67-5.73,4.68-13.07,7.26-20.67,7.26Z"/>
          </g>
          <g>
            <path class="cls-13" d="M187.08,286.68c-15.55-.05-28.15-12.67-28.15-28.12s12.62-28.1,28.13-28.1h.8c5.66,0,10.99,2.17,15.01,6.1l.56.54,6.47-6.83c-1.9-2.02-4.13-3.75-6.02-4.85-4.83-2.81-10.29-4.43-15.98-4.43h-.83c-20.46,0-37.17,16.45-37.58,36.81h-3.86c.41-22.49,18.83-40.66,41.42-40.66h.85c6.4,0,12.62,1.78,18.06,5.03,2.87,1.71,6.79,5.22,9.24,8.13l-11.73,12.29c-1.23-1.47-3.69-3.71-4.89-4.63-3.04-2.34-6.78-3.62-10.73-3.62h-.8c-13.38,0-24.27,10.87-24.27,24.23s10.85,24.22,24.2,24.26c.32,0,.55,0,.77,0,7.45,0,14.6-2.6,20.13-7.32,1.9-1.62,3.59-3.45,5.04-5.44l.53-.73-8.64-4.33-.39.47c-1.03,1.26-2.21,2.41-3.52,3.42-3.68,2.86-8.31,4.43-13.02,4.43-.45,0-.89-.01-1.34-.04-7.79-.27-13.93-6.39-14.31-14.08h3.87c.38,5.59,4.88,10.02,10.57,10.21.37.02.75.03,1.13.03,3.98,0,7.69-1.25,10.74-3.61,1.6-1.24,2.96-2.71,4.04-4.37l.94-1.45,15.41,7.73-1.05,1.78c-1.97,3.35-4.49,6.35-7.49,8.91-6.23,5.32-14.23,8.25-22.53,8.25-.26,0-.52,0-.79,0Z"/>
            <polygon class="cls-13" points="384.63 284.89 384.63 222.79 368.55 222.79 368.55 232.47 375 232.47 375 236.33 364.69 236.33 364.69 218.92 388.49 218.92 388.49 281.03 398.17 281.03 398.17 232.47 418.07 232.47 418.07 222.78 398.13 222.78 398.13 218.92 421.94 218.92 421.94 236.33 402.03 236.33 402.03 284.89 384.63 284.89"/>
            <polygon class="cls-13" points="43.05 284.89 43.05 246.96 14.77 246.96 14.77 222.78 5.13 222.78 5.13 281.03 14.81 281.03 14.77 256.62 33.41 256.62 33.41 260.48 18.64 260.48 18.68 284.89 1.27 284.89 1.27 218.92 18.63 218.92 18.63 243.1 46.91 243.1 46.91 281.03 56.55 281.03 56.55 222.78 46.73 222.78 46.73 233.46 42.87 233.46 42.87 218.92 60.41 218.92 60.41 284.89 43.05 284.89"/>
            <polygon class="cls-13" points="474.57 284.89 474.57 246.96 446.29 246.96 446.29 222.78 436.65 222.78 436.65 281.03 446.33 281.03 446.29 256.62 464.93 256.62 464.93 260.48 450.16 260.48 450.2 284.89 432.79 284.89 432.79 218.92 450.15 218.92 450.15 243.1 478.43 243.1 478.43 281.03 488.07 281.03 488.07 222.78 478.25 222.78 478.25 233.46 474.39 233.46 474.39 218.92 491.93 218.92 491.93 284.89 474.57 284.89"/>
            <polygon class="cls-13" points="228.49 284.91 228.61 219.01 245.28 219.01 273.19 281.02 283.8 281.02 268.84 247.91 283.18 222.8 271.99 222.8 263.96 236.85 262 232.5 269.75 218.94 289.84 218.94 273.17 248.12 289.79 284.88 270.69 284.88 242.78 222.88 232.47 222.88 232.36 281.05 242.04 281.05 242.04 244.71 245.91 253.28 245.91 284.91 228.49 284.91"/>
            <polygon class="cls-13" points="123.25 274.29 127.36 274.29 129.82 280.99 140.19 281.01 118.62 222.77 112.91 222.77 102.39 251.08 118.75 251.08 125.18 268.47 95.97 268.47 89.9 284.85 71.31 284.85 95.69 218.91 99.81 218.91 76.86 280.99 87.21 280.99 93.28 264.61 119.63 264.61 116.06 254.94 96.84 254.94 110.22 218.91 121.31 218.91 145.74 284.88 127.13 284.88 123.25 274.29"/>
            <polygon class="cls-13" points="347.72 274.29 351.84 274.29 354.3 280.99 364.67 281.01 343.1 222.77 337.39 222.77 326.87 251.08 343.23 251.08 349.65 268.47 320.45 268.47 314.38 284.85 295.79 284.85 320.17 218.91 324.29 218.91 301.33 280.99 311.69 280.99 317.76 264.61 344.11 264.61 340.54 254.94 321.32 254.94 334.7 218.91 345.79 218.91 370.22 284.88 351.61 284.88 347.72 274.29"/>
            <polygon class="cls-13" points="618.56 284.74 590.32 223.02 579.99 223.02 579.99 280.9 589.64 280.9 589.64 243.76 608.43 284.74 604.21 284.74 593.49 261.37 593.47 284.74 576.15 284.74 576.15 219.19 592.79 219.19 621.03 280.9 631.36 280.9 631.36 223.02 621.71 223.02 621.71 259.38 617.87 250.99 617.87 219.19 635.2 219.19 635.2 284.74 618.56 284.74"/>
            <path class="cls-13" d="M534.67,284.57c-7.89,0-15.46-2.75-21.29-7.75-7.32-6.27-11.53-15.37-11.53-24.97,0-9.64,4.23-18.75,11.58-25.01,5.85-4.99,13.39-7.74,21.22-7.74s15.39,2.75,21.24,7.75c7.35,6.27,11.56,15.38,11.56,25,0,.68-.02,1.27-.05,1.79h-16.15c.13-6.48-2.06-11.51-6.54-14.97-2.82-2.18-6.4-3.38-10.08-3.38s-7.1,1.15-9.87,3.24c-4.2,3.16-6.64,7.95-6.7,13.15-.06,5.19,2.28,10.03,6.4,13.27,2.67,2.09,5.9,3.29,9.35,3.46h.11v3.6h-.28c-4.2-.22-8.13-1.68-11.39-4.23-4.94-3.88-7.77-9.68-7.77-15.91v-.21c.07-6.32,3.03-12.14,8.13-15.98,3.48-2.62,7.64-4,12.03-4s8.79,1.48,12.27,4.18c4.36,3.37,7.11,8.2,7.76,13.59l.08.63h9.07l-.07-.78c-.68-7.67-4.3-14.67-10.19-19.7-5.21-4.45-11.93-6.9-18.91-6.9s-13.68,2.45-18.89,6.89c-6.55,5.59-10.31,13.7-10.32,22.25,0,8.58,3.74,16.68,10.27,22.27,5.2,4.45,11.93,6.9,18.96,6.9s13.3-2.3,18.4-6.47c3.32-2.72,6.09-5.8,8.74-11.89h3.82c-2.55,7.51-7.5,12.39-10.29,14.67-5.73,4.68-13.07,7.26-20.67,7.26Z"/>
          </g>
          <g>
            <path class="cls-15" d="M188.1,283.67c-15.55-.05-28.15-12.67-28.15-28.12s12.62-28.1,28.13-28.1h.8c5.66,0,10.99,2.17,15.01,6.1l.56.54,6.47-6.83c-1.9-2.02-4.13-3.75-6.02-4.85-4.83-2.81-10.29-4.43-15.98-4.43h-.83c-20.46,0-37.17,16.45-37.58,36.81h-3.86c.41-22.49,18.83-40.66,41.42-40.66h.85c6.4,0,12.62,1.78,18.06,5.03,2.87,1.71,6.79,5.22,9.24,8.13l-11.73,12.29c-1.23-1.47-3.69-3.71-4.89-4.63-3.04-2.34-6.78-3.62-10.73-3.62h-.8c-13.38,0-24.27,10.87-24.27,24.23s10.85,24.22,24.2,24.26c.32,0,.55,0,.77,0,7.45,0,14.6-2.6,20.13-7.32,1.9-1.62,3.59-3.45,5.04-5.44l.53-.73-8.64-4.33-.39.47c-1.03,1.26-2.21,2.41-3.52,3.42-3.68,2.86-8.31,4.43-13.02,4.43-.45,0-.89-.01-1.34-.04-7.79-.27-13.93-6.39-14.31-14.08h3.87c.38,5.59,4.88,10.02,10.57,10.21.37.02.75.03,1.13.03,3.98,0,7.69-1.25,10.74-3.61,1.6-1.24,2.96-2.71,4.04-4.37l.94-1.45,15.41,7.73-1.05,1.78c-1.97,3.35-4.49,6.35-7.49,8.91-6.23,5.32-14.23,8.25-22.53,8.25-.26,0-.52,0-.79,0Z"/>
            <polygon class="cls-15" points="385.64 281.88 385.64 219.77 369.56 219.77 369.56 229.45 376.01 229.45 376.01 233.31 365.7 233.31 365.7 215.91 389.51 215.91 389.51 278.02 399.19 278.02 399.19 229.45 419.09 229.45 419.09 219.77 399.14 219.77 399.14 215.91 422.95 215.91 422.95 233.31 403.05 233.31 403.05 281.88 385.64 281.88"/>
            <polygon class="cls-15" points="44.07 281.88 44.07 243.95 15.79 243.95 15.79 219.77 6.15 219.77 6.15 278.02 15.83 278.02 15.78 253.61 34.43 253.61 34.43 257.47 19.65 257.47 19.7 281.88 2.29 281.88 2.29 215.91 19.65 215.91 19.65 240.09 47.93 240.09 47.93 278.02 57.57 278.02 57.57 219.77 47.75 219.77 47.75 230.45 43.88 230.45 43.88 215.91 61.43 215.91 61.43 281.88 44.07 281.88"/>
            <polygon class="cls-15" points="475.58 281.88 475.58 243.95 447.31 243.95 447.31 219.77 437.67 219.77 437.67 278.02 447.34 278.02 447.3 253.61 465.95 253.61 465.95 257.47 451.17 257.47 451.21 281.88 433.81 281.88 433.81 215.91 451.17 215.91 451.17 240.09 479.45 240.09 479.45 278.02 489.08 278.02 489.08 219.77 479.27 219.77 479.27 230.45 475.4 230.45 475.4 215.91 492.95 215.91 492.95 281.88 475.58 281.88"/>
            <polygon class="cls-15" points="229.5 281.9 229.62 216 246.29 216 274.2 278.01 284.81 278 269.85 244.9 284.2 219.79 273 219.79 264.97 233.84 263.01 229.48 270.76 215.93 290.86 215.93 274.19 245.1 290.8 281.87 271.71 281.87 243.79 219.86 233.48 219.86 233.37 278.04 243.05 278.04 243.05 241.7 246.92 250.27 246.92 281.9 229.5 281.9"/>
            <polygon class="cls-15" points="124.26 271.28 128.38 271.28 130.84 277.98 141.2 278 119.64 219.75 113.92 219.75 103.41 248.07 119.77 248.06 126.19 265.46 96.98 265.46 90.92 281.84 72.33 281.84 96.71 215.9 100.82 215.9 77.87 277.98 88.23 277.98 94.29 261.6 120.65 261.6 117.08 251.92 97.86 251.93 111.24 215.9 122.33 215.9 146.75 281.86 128.14 281.87 124.26 271.28"/>
            <polygon class="cls-15" points="348.74 271.28 352.86 271.28 355.32 277.98 365.68 278 344.12 219.75 338.4 219.75 327.89 248.07 344.25 248.06 350.67 265.46 321.46 265.46 315.4 281.84 296.81 281.84 321.19 215.9 325.3 215.9 302.35 277.98 312.71 277.98 318.77 261.6 345.13 261.6 341.56 251.92 322.34 251.93 335.72 215.9 346.81 215.9 371.23 281.86 352.62 281.87 348.74 271.28"/>
            <polygon class="cls-15" points="619.58 281.73 591.34 220.01 581 220.01 581 277.89 590.65 277.89 590.65 240.75 609.45 281.72 605.23 281.72 594.51 258.36 594.49 281.73 577.16 281.73 577.16 216.18 593.8 216.18 622.04 277.89 632.38 277.89 632.38 220.01 622.73 220.01 622.73 256.37 618.89 247.98 618.89 216.18 636.22 216.18 636.22 281.73 619.58 281.73"/>
            <path class="cls-15" d="M535.69,281.56c-7.89,0-15.46-2.75-21.29-7.75-7.32-6.27-11.53-15.37-11.53-24.97,0-9.64,4.23-18.75,11.58-25.01,5.85-4.99,13.39-7.74,21.22-7.74s15.39,2.75,21.24,7.75c7.35,6.27,11.56,15.38,11.56,25,0,.68-.02,1.27-.05,1.79h-16.15c.13-6.48-2.06-11.51-6.54-14.97-2.82-2.18-6.4-3.38-10.08-3.38s-7.1,1.15-9.87,3.24c-4.2,3.16-6.64,7.95-6.7,13.15-.06,5.19,2.28,10.03,6.4,13.27,2.67,2.09,5.9,3.29,9.35,3.46h.11v3.6h-.28c-4.2-.22-8.13-1.68-11.39-4.23-4.94-3.88-7.77-9.68-7.77-15.91v-.21c.07-6.32,3.03-12.14,8.13-15.98,3.48-2.62,7.64-4,12.03-4s8.79,1.48,12.27,4.18c4.36,3.37,7.11,8.2,7.76,13.59l.08.63h9.07l-.07-.78c-.68-7.67-4.3-14.67-10.19-19.7-5.21-4.45-11.93-6.9-18.91-6.9s-13.68,2.45-18.89,6.89c-6.55,5.59-10.31,13.7-10.32,22.25,0,8.58,3.74,16.68,10.27,22.27,5.2,4.45,11.93,6.9,18.96,6.9s13.3-2.3,18.4-6.47c3.32-2.72,6.09-5.8,8.74-11.89h3.82c-2.55,7.51-7.5,12.39-10.29,14.67-5.73,4.68-13.07,7.26-20.67,7.26Z"/>
          </g>
          <g>
            <path class="cls-13" d="M187.08,286.67c-15.55-.05-28.15-12.67-28.15-28.12s12.62-28.1,28.13-28.1h.8c5.66,0,10.99,2.17,15.01,6.1l.56.54,6.47-6.83c-1.9-2.02-4.13-3.75-6.02-4.85-4.83-2.81-10.29-4.43-15.98-4.43h-.83c-20.46,0-37.17,16.45-37.58,36.81h-3.86c.41-22.49,18.83-40.66,41.42-40.66h.85c6.4,0,12.62,1.78,18.06,5.03,2.87,1.71,6.79,5.22,9.24,8.13l-11.73,12.29c-1.23-1.47-3.69-3.71-4.89-4.63-3.04-2.34-6.78-3.62-10.73-3.62h-.8c-13.38,0-24.27,10.87-24.27,24.23s10.85,24.22,24.2,24.26c.32,0,.55,0,.77,0,7.45,0,14.6-2.6,20.13-7.32,1.9-1.62,3.59-3.45,5.04-5.44l.53-.73-8.64-4.33-.39.47c-1.03,1.26-2.21,2.41-3.52,3.42-3.68,2.86-8.31,4.43-13.02,4.43-.45,0-.89-.01-1.34-.04-7.79-.27-13.93-6.39-14.31-14.08h3.87c.38,5.59,4.88,10.02,10.57,10.21.37.02.75.03,1.13.03,3.98,0,7.69-1.25,10.74-3.61,1.6-1.24,2.96-2.71,4.04-4.37l.94-1.45,15.41,7.73-1.05,1.78c-1.97,3.35-4.49,6.35-7.49,8.91-6.23,5.32-14.23,8.25-22.53,8.25-.26,0-.52,0-.79,0Z"/>
            <polygon class="cls-13" points="384.63 284.89 384.63 222.78 368.55 222.78 368.55 232.46 375 232.46 375 236.32 364.69 236.32 364.69 218.92 388.49 218.92 388.49 281.03 398.17 281.03 398.17 232.46 418.07 232.46 418.07 222.77 398.13 222.77 398.13 218.91 421.94 218.91 421.94 236.32 402.03 236.32 402.03 284.89 384.63 284.89"/>
            <polygon class="cls-13" points="43.05 284.88 43.05 246.95 14.77 246.95 14.77 222.77 5.13 222.77 5.13 281.02 14.81 281.02 14.77 256.62 33.41 256.62 33.41 260.48 18.64 260.48 18.68 284.88 1.27 284.88 1.27 218.91 18.63 218.91 18.63 243.09 46.91 243.09 46.91 281.02 56.55 281.02 56.55 222.77 46.73 222.77 46.73 233.45 42.87 233.45 42.87 218.91 60.41 218.91 60.41 284.88 43.05 284.88"/>
            <polygon class="cls-13" points="474.57 284.88 474.57 246.95 446.29 246.95 446.29 222.77 436.65 222.77 436.65 281.02 446.33 281.02 446.29 256.62 464.93 256.62 464.93 260.48 450.16 260.48 450.2 284.88 432.79 284.88 432.79 218.91 450.15 218.91 450.15 243.09 478.43 243.09 478.43 281.02 488.07 281.02 488.07 222.77 478.25 222.77 478.25 233.45 474.39 233.45 474.39 218.91 491.93 218.91 491.93 284.88 474.57 284.88"/>
            <polygon class="cls-13" points="228.49 284.9 228.61 219.01 245.28 219.01 273.19 281.01 283.8 281.01 268.84 247.9 283.18 222.8 271.99 222.8 263.96 236.85 262 232.49 269.75 218.93 289.84 218.93 273.17 248.11 289.79 284.88 270.69 284.88 242.78 222.87 232.47 222.87 232.36 281.04 242.04 281.04 242.04 244.7 245.91 253.27 245.91 284.9 228.49 284.9"/>
            <polygon class="cls-13" points="123.25 274.28 127.36 274.28 129.82 280.99 140.19 281 118.62 222.76 112.91 222.76 102.39 251.07 118.75 251.07 125.18 268.46 95.97 268.46 89.9 284.84 71.31 284.84 95.69 218.9 99.81 218.9 76.86 280.98 87.21 280.98 93.28 264.6 119.63 264.6 116.06 254.93 96.84 254.94 110.22 218.9 121.31 218.9 145.74 284.87 127.13 284.88 123.25 274.28"/>
            <polygon class="cls-13" points="347.72 274.28 351.84 274.28 354.3 280.99 364.67 281 343.1 222.76 337.39 222.76 326.87 251.07 343.23 251.07 349.65 268.46 320.45 268.46 314.38 284.84 295.79 284.84 320.17 218.9 324.29 218.9 301.33 280.98 311.69 280.98 317.76 264.6 344.11 264.6 340.54 254.93 321.32 254.94 334.7 218.9 345.79 218.9 370.22 284.87 351.61 284.88 347.72 274.28"/>
            <polygon class="cls-13" points="618.56 284.73 590.32 223.02 579.99 223.02 579.99 280.9 589.64 280.9 589.64 243.76 608.43 284.73 604.21 284.73 593.49 261.37 593.47 284.73 576.15 284.73 576.15 219.18 592.79 219.18 621.03 280.9 631.36 280.9 631.36 223.02 621.71 223.02 621.71 259.37 617.87 250.99 617.87 219.18 635.2 219.18 635.2 284.73 618.56 284.73"/>
            <path class="cls-13" d="M534.67,284.56c-7.89,0-15.46-2.75-21.29-7.75-7.32-6.27-11.53-15.37-11.53-24.97,0-9.64,4.23-18.75,11.58-25.01,5.85-4.99,13.39-7.74,21.22-7.74s15.39,2.75,21.24,7.75c7.35,6.27,11.56,15.38,11.56,25,0,.68-.02,1.27-.05,1.79h-16.15c.13-6.48-2.06-11.51-6.54-14.97-2.82-2.18-6.4-3.38-10.08-3.38s-7.1,1.15-9.87,3.24c-4.2,3.16-6.64,7.95-6.7,13.15-.06,5.19,2.28,10.03,6.4,13.27,2.67,2.09,5.9,3.29,9.35,3.46h.11v3.6h-.28c-4.2-.22-8.13-1.68-11.39-4.23-4.94-3.88-7.77-9.68-7.77-15.91v-.21c.07-6.32,3.03-12.14,8.13-15.98,3.48-2.62,7.64-4,12.03-4s8.79,1.48,12.27,4.18c4.36,3.37,7.11,8.2,7.76,13.59l.08.63h9.07l-.07-.78c-.68-7.67-4.3-14.67-10.19-19.7-5.21-4.45-11.93-6.9-18.91-6.9s-13.68,2.45-18.89,6.89c-6.55,5.59-10.31,13.7-10.32,22.25,0,8.58,3.74,16.68,10.27,22.27,5.2,4.45,11.93,6.9,18.96,6.9s13.3-2.3,18.4-6.47c3.32-2.72,6.09-5.8,8.74-11.89h3.82c-2.55,7.51-7.5,12.39-10.29,14.67-5.73,4.68-13.07,7.26-20.67,7.26Z"/>
          </g>
          <g>
            <path class="cls-13" d="M187.08,286.66c-15.55-.05-28.15-12.67-28.15-28.12s12.62-28.1,28.13-28.1h.8c5.66,0,10.99,2.17,15.01,6.1l.56.54,6.47-6.83c-1.9-2.02-4.13-3.75-6.02-4.85-4.83-2.81-10.29-4.43-15.98-4.43h-.83c-20.46,0-37.17,16.45-37.58,36.81h-3.86c.41-22.49,18.83-40.66,41.42-40.66h.85c6.4,0,12.62,1.78,18.06,5.03,2.87,1.71,6.79,5.22,9.24,8.13l-11.73,12.29c-1.23-1.47-3.69-3.71-4.89-4.63-3.04-2.34-6.78-3.62-10.73-3.62h-.8c-13.38,0-24.27,10.87-24.27,24.23s10.85,24.22,24.2,24.26c.32,0,.55,0,.77,0,7.45,0,14.6-2.6,20.13-7.32,1.9-1.62,3.59-3.45,5.04-5.44l.53-.73-8.64-4.33-.39.47c-1.03,1.26-2.21,2.41-3.52,3.42-3.68,2.86-8.31,4.43-13.02,4.43-.45,0-.89-.01-1.34-.04-7.79-.27-13.93-6.39-14.31-14.08h3.87c.38,5.59,4.88,10.02,10.57,10.21.37.02.75.03,1.13.03,3.98,0,7.69-1.25,10.74-3.61,1.6-1.24,2.96-2.71,4.04-4.37l.94-1.45,15.41,7.73-1.05,1.78c-1.97,3.35-4.49,6.35-7.49,8.91-6.23,5.32-14.23,8.25-22.53,8.25-.26,0-.52,0-.79,0Z"/>
            <polygon class="cls-13" points="384.63 284.88 384.63 222.77 368.55 222.77 368.55 232.45 375 232.45 375 236.31 364.69 236.31 364.69 218.91 388.49 218.91 388.49 281.02 398.17 281.02 398.17 232.45 418.07 232.45 418.07 222.76 398.13 222.76 398.13 218.9 421.94 218.9 421.94 236.31 402.03 236.31 402.03 284.88 384.63 284.88"/>
            <polygon class="cls-13" points="43.05 284.88 43.05 246.95 14.77 246.95 14.77 222.77 5.13 222.77 5.13 281.02 14.81 281.02 14.77 256.61 33.41 256.61 33.41 260.47 18.64 260.47 18.68 284.88 1.27 284.88 1.27 218.91 18.63 218.91 18.63 243.08 46.91 243.08 46.91 281.02 56.55 281.02 56.55 222.77 46.73 222.77 46.73 233.44 42.87 233.44 42.87 218.91 60.41 218.91 60.41 284.88 43.05 284.88"/>
            <polygon class="cls-13" points="474.57 284.88 474.57 246.95 446.29 246.95 446.29 222.77 436.65 222.77 436.65 281.02 446.33 281.02 446.29 256.61 464.93 256.61 464.93 260.47 450.16 260.47 450.2 284.88 432.79 284.88 432.79 218.91 450.15 218.91 450.15 243.08 478.43 243.08 478.43 281.02 488.07 281.02 488.07 222.77 478.25 222.77 478.25 233.44 474.39 233.44 474.39 218.91 491.93 218.91 491.93 284.88 474.57 284.88"/>
            <polygon class="cls-13" points="228.49 284.9 228.61 219 245.28 219 273.19 281 283.8 281 268.84 247.9 283.18 222.79 271.99 222.79 263.96 236.84 262 232.48 269.75 218.93 289.84 218.93 273.17 248.1 289.79 284.87 270.69 284.87 242.78 222.86 232.47 222.86 232.36 281.03 242.04 281.03 242.04 244.69 245.91 253.26 245.91 284.9 228.49 284.9"/>
            <polygon class="cls-13" points="123.25 274.27 127.36 274.27 129.82 280.98 140.19 280.99 118.62 222.75 112.91 222.75 102.39 251.07 118.75 251.06 125.18 268.45 95.97 268.46 89.9 284.83 71.31 284.83 95.69 218.89 99.81 218.89 76.86 280.98 87.21 280.98 93.28 264.6 119.63 264.59 116.06 254.92 96.84 254.93 110.22 218.89 121.31 218.89 145.74 284.86 127.13 284.87 123.25 274.27"/>
            <polygon class="cls-13" points="347.72 274.27 351.84 274.27 354.3 280.98 364.67 280.99 343.1 222.75 337.39 222.75 326.87 251.07 343.23 251.06 349.65 268.45 320.45 268.46 314.38 284.83 295.79 284.83 320.17 218.89 324.29 218.89 301.33 280.98 311.69 280.98 317.76 264.6 344.11 264.59 340.54 254.92 321.32 254.93 334.7 218.89 345.79 218.89 370.22 284.86 351.61 284.87 347.72 274.27"/>
            <polygon class="cls-13" points="618.56 284.72 590.32 223.01 579.99 223.01 579.99 280.89 589.64 280.89 589.64 243.75 608.43 284.72 604.21 284.72 593.49 261.36 593.47 284.72 576.15 284.72 576.15 219.17 592.79 219.17 621.03 280.89 631.36 280.89 631.36 223.01 621.71 223.01 621.71 259.37 617.87 250.98 617.87 219.17 635.2 219.17 635.2 284.72 618.56 284.72"/>
            <path class="cls-13" d="M534.67,284.56c-7.89,0-15.46-2.75-21.29-7.75-7.32-6.27-11.53-15.37-11.53-24.97,0-9.64,4.23-18.75,11.58-25.01,5.85-4.99,13.39-7.74,21.22-7.74s15.39,2.75,21.24,7.75c7.35,6.27,11.56,15.38,11.56,25,0,.68-.02,1.27-.05,1.79h-16.15c.13-6.48-2.06-11.51-6.54-14.97-2.82-2.18-6.4-3.38-10.08-3.38s-7.1,1.15-9.87,3.24c-4.2,3.16-6.64,7.95-6.7,13.15-.06,5.19,2.28,10.03,6.4,13.27,2.67,2.09,5.9,3.29,9.35,3.46h.11v3.6h-.28c-4.2-.22-8.13-1.68-11.39-4.23-4.94-3.88-7.77-9.68-7.77-15.91v-.21c.07-6.32,3.03-12.14,8.13-15.98,3.48-2.62,7.64-4,12.03-4s8.79,1.48,12.27,4.18c4.36,3.37,7.11,8.2,7.76,13.59l.08.63h9.07l-.07-.78c-.68-7.67-4.3-14.67-10.19-19.7-5.21-4.45-11.93-6.9-18.91-6.9s-13.68,2.45-18.89,6.89c-6.55,5.59-10.31,13.7-10.32,22.25,0,8.58,3.74,16.68,10.27,22.27,5.2,4.45,11.93,6.9,18.96,6.9s13.3-2.3,18.4-6.47c3.32-2.72,6.09-5.8,8.74-11.89h3.82c-2.55,7.51-7.5,12.39-10.29,14.67-5.73,4.68-13.07,7.26-20.67,7.26Z"/>
          </g>
          <g>
            <path class="cls-14" d="M185.81,283.65c-15.55-.05-28.15-12.67-28.15-28.12s12.62-28.1,28.13-28.1h.8c5.66,0,10.99,2.17,15.01,6.1l.56.54,6.47-6.83c-1.9-2.02-4.13-3.75-6.02-4.85-4.83-2.81-10.29-4.43-15.98-4.43h-.83c-20.46,0-37.17,16.45-37.58,36.81h-3.86c.41-22.49,18.83-40.66,41.42-40.66h.85c6.4,0,12.62,1.78,18.06,5.03,2.87,1.71,6.79,5.22,9.24,8.13l-11.73,12.29c-1.23-1.47-3.69-3.71-4.89-4.63-3.04-2.34-6.78-3.62-10.73-3.62h-.8c-13.38,0-24.27,10.87-24.27,24.23s10.85,24.22,24.2,24.26c.32,0,.55,0,.77,0,7.45,0,14.6-2.6,20.13-7.32,1.9-1.62,3.59-3.45,5.04-5.44l.53-.73-8.64-4.33-.39.47c-1.03,1.26-2.21,2.41-3.52,3.42-3.68,2.86-8.31,4.43-13.02,4.43-.45,0-.89-.01-1.34-.04-7.79-.27-13.93-6.39-14.31-14.08h3.87c.38,5.59,4.88,10.02,10.57,10.21.37.02.75.03,1.13.03,3.98,0,7.69-1.25,10.74-3.61,1.6-1.24,2.96-2.71,4.04-4.37l.94-1.45,15.41,7.73-1.05,1.78c-1.97,3.35-4.49,6.35-7.49,8.91-6.23,5.32-14.23,8.25-22.53,8.25-.26,0-.52,0-.79,0Z"/>
            <polygon class="cls-14" points="383.36 281.86 383.36 219.75 367.28 219.75 367.28 229.43 373.72 229.43 373.72 233.29 363.41 233.29 363.41 215.89 387.22 215.89 387.22 278 396.9 278 396.9 229.43 416.8 229.43 416.8 219.75 396.86 219.75 396.86 215.89 420.66 215.89 420.66 233.29 400.76 233.29 400.76 281.86 383.36 281.86"/>
            <polygon class="cls-14" points="41.78 281.86 41.78 243.93 13.5 243.93 13.5 219.75 3.86 219.75 3.86 278 13.54 278 13.5 253.59 32.14 253.59 32.14 257.45 17.37 257.45 17.41 281.86 0 281.86 0 215.89 17.36 215.89 17.36 240.07 45.64 240.07 45.64 278 55.28 278 55.28 219.75 45.46 219.75 45.46 230.43 41.6 230.43 41.6 215.89 59.14 215.89 59.14 281.86 41.78 281.86"/>
            <polygon class="cls-14" points="473.3 281.86 473.3 243.93 445.02 243.93 445.02 219.75 435.38 219.75 435.38 278 445.06 278 445.01 253.59 463.66 253.59 463.66 257.45 448.88 257.45 448.93 281.86 431.52 281.86 431.52 215.89 448.88 215.89 448.88 240.07 477.16 240.07 477.16 278 486.8 278 486.8 219.75 476.98 219.75 476.98 230.43 473.12 230.43 473.12 215.89 490.66 215.89 490.66 281.86 473.3 281.86"/>
            <polygon class="cls-14" points="227.21 281.88 227.34 215.98 244.01 215.98 271.92 277.99 282.53 277.98 267.56 244.88 281.91 219.77 270.72 219.77 262.69 233.82 260.73 229.46 268.47 215.91 288.57 215.91 271.9 245.08 288.52 281.85 269.42 281.85 241.51 219.84 231.19 219.84 231.09 278.02 240.77 278.02 240.77 241.67 244.63 250.25 244.63 281.88 227.21 281.88"/>
            <polygon class="cls-14" points="121.97 271.26 126.09 271.26 128.55 277.96 138.91 277.98 117.35 219.73 111.64 219.73 101.12 248.05 117.48 248.04 123.9 265.44 94.7 265.44 88.63 281.82 70.04 281.82 94.42 215.87 98.54 215.87 75.58 277.96 85.94 277.96 92.01 261.58 118.36 261.57 114.79 251.9 95.57 251.91 108.95 215.88 120.04 215.88 144.46 281.84 125.86 281.85 121.97 271.26"/>
            <polygon class="cls-14" points="346.45 271.26 350.57 271.26 353.03 277.96 363.39 277.98 341.83 219.73 336.12 219.73 325.6 248.05 341.96 248.04 348.38 265.44 319.18 265.44 313.11 281.82 294.52 281.82 318.9 215.87 323.02 215.87 300.06 277.96 310.42 277.96 316.49 261.58 342.84 261.57 339.27 251.9 320.05 251.91 333.43 215.88 344.52 215.88 368.94 281.84 350.34 281.85 346.45 271.26"/>
            <polygon class="cls-14" points="617.29 281.71 589.05 219.99 578.71 219.99 578.71 277.87 588.36 277.87 588.36 240.73 607.16 281.7 602.94 281.7 592.22 258.34 592.2 281.71 574.87 281.71 574.87 216.16 591.51 216.16 619.75 277.87 630.09 277.87 630.09 219.99 620.44 219.99 620.44 256.35 616.6 247.96 616.6 216.16 633.93 216.16 633.93 281.71 617.29 281.71"/>
            <path class="cls-14" d="M533.4,281.54c-7.89,0-15.46-2.75-21.29-7.75-7.32-6.27-11.53-15.37-11.53-24.97,0-9.64,4.23-18.75,11.58-25.01,5.85-4.99,13.39-7.74,21.22-7.74s15.39,2.75,21.24,7.75c7.35,6.27,11.56,15.38,11.56,25,0,.68-.02,1.27-.05,1.79h-16.15c.13-6.48-2.06-11.51-6.54-14.97-2.82-2.18-6.4-3.38-10.08-3.38s-7.1,1.15-9.87,3.24c-4.2,3.16-6.64,7.95-6.7,13.15-.06,5.19,2.28,10.03,6.4,13.27,2.67,2.09,5.9,3.29,9.35,3.46h.11v3.6h-.28c-4.2-.22-8.13-1.68-11.39-4.23-4.94-3.88-7.77-9.68-7.77-15.91v-.21c.07-6.32,3.03-12.14,8.13-15.98,3.48-2.62,7.64-4,12.03-4s8.79,1.48,12.27,4.18c4.36,3.37,7.11,8.2,7.76,13.59l.08.63h9.07l-.07-.78c-.68-7.67-4.3-14.67-10.19-19.7-5.21-4.45-11.93-6.9-18.91-6.9s-13.68,2.45-18.89,6.89c-6.55,5.59-10.31,13.7-10.32,22.25,0,8.58,3.74,16.68,10.27,22.27,5.2,4.45,11.93,6.9,18.96,6.9s13.3-2.3,18.4-6.47c3.32-2.72,6.09-5.8,8.74-11.89h3.82c-2.55,7.51-7.5,12.39-10.29,14.67-5.73,4.68-13.07,7.26-20.67,7.26Z"/>
          </g>
          <g>
            <path class="cls-2" d="M187.08,284.6c-15.55-.05-28.15-12.67-28.15-28.12s12.62-28.1,28.13-28.1h.8c5.66,0,10.99,2.17,15.01,6.1l.56.54,6.47-6.83c-1.9-2.02-4.13-3.75-6.02-4.85-4.83-2.81-10.29-4.43-15.98-4.43h-.83c-20.46,0-37.17,16.45-37.58,36.81h-3.86c.41-22.49,18.83-40.66,41.42-40.66h.85c6.4,0,12.62,1.78,18.06,5.03,2.87,1.71,6.79,5.22,9.24,8.13l-11.73,12.29c-1.23-1.47-3.69-3.71-4.89-4.63-3.04-2.34-6.78-3.62-10.73-3.62h-.8c-13.38,0-24.27,10.87-24.27,24.23s10.85,24.22,24.2,24.26c.32,0,.55,0,.77,0,7.45,0,14.6-2.6,20.13-7.32,1.9-1.62,3.59-3.45,5.04-5.44l.53-.73-8.64-4.33-.39.47c-1.03,1.26-2.21,2.41-3.52,3.42-3.68,2.86-8.31,4.43-13.02,4.43-.45,0-.89-.01-1.34-.04-7.79-.27-13.93-6.39-14.31-14.08h3.87c.38,5.59,4.88,10.02,10.57,10.21.37.02.75.03,1.13.03,3.98,0,7.69-1.25,10.74-3.61,1.6-1.24,2.96-2.71,4.04-4.37l.94-1.45,15.41,7.73-1.05,1.78c-1.97,3.35-4.49,6.35-7.49,8.91-6.23,5.32-14.23,8.25-22.53,8.25-.26,0-.52,0-.79,0Z"/>
            <polygon class="cls-2" points="384.63 282.81 384.63 220.71 368.55 220.71 368.55 230.39 375 230.39 375 234.25 364.69 234.25 364.69 216.84 388.49 216.84 388.49 278.95 398.17 278.95 398.17 230.39 418.07 230.39 418.07 220.7 398.13 220.7 398.13 216.84 421.94 216.84 421.94 234.25 402.03 234.25 402.03 282.81 384.63 282.81"/>
            <polygon class="cls-2" points="43.05 282.81 43.05 244.88 14.77 244.88 14.77 220.7 5.13 220.7 5.13 278.95 14.81 278.95 14.77 254.54 33.41 254.54 33.41 258.4 18.64 258.4 18.68 282.81 1.27 282.81 1.27 216.84 18.63 216.84 18.63 241.02 46.91 241.02 46.91 278.95 56.55 278.95 56.55 220.7 46.73 220.7 46.73 231.38 42.87 231.38 42.87 216.84 60.41 216.84 60.41 282.81 43.05 282.81"/>
            <polygon class="cls-2" points="474.57 282.81 474.57 244.88 446.29 244.88 446.29 220.7 436.65 220.7 436.65 278.95 446.33 278.95 446.29 254.54 464.93 254.54 464.93 258.4 450.16 258.4 450.2 282.81 432.79 282.81 432.79 216.84 450.15 216.84 450.15 241.02 478.43 241.02 478.43 278.95 488.07 278.95 488.07 220.7 478.25 220.7 478.25 231.38 474.39 231.38 474.39 216.84 491.93 216.84 491.93 282.81 474.57 282.81"/>
            <polygon class="cls-2" points="228.49 282.83 228.61 216.93 245.28 216.93 273.19 278.94 283.8 278.94 268.84 245.83 283.18 220.72 271.99 220.72 263.96 234.77 262 230.42 269.75 216.86 289.84 216.86 273.17 246.04 289.79 282.8 270.69 282.8 242.78 220.8 232.47 220.8 232.36 278.97 242.04 278.97 242.04 242.63 245.91 251.2 245.91 282.83 228.49 282.83"/>
            <polygon class="cls-2" points="123.25 272.21 127.36 272.21 129.82 278.91 140.19 278.93 118.62 220.69 112.91 220.69 102.39 249 118.75 248.99 125.18 266.39 95.97 266.39 89.9 282.77 71.31 282.77 95.69 216.83 99.81 216.83 76.86 278.91 87.21 278.91 93.28 262.53 119.63 262.53 116.06 252.86 96.84 252.86 110.22 216.83 121.31 216.83 145.74 282.8 127.13 282.8 123.25 272.21"/>
            <polygon class="cls-2" points="347.72 272.21 351.84 272.21 354.3 278.91 364.67 278.93 343.1 220.69 337.39 220.69 326.87 249 343.23 248.99 349.65 266.39 320.45 266.39 314.38 282.77 295.79 282.77 320.17 216.83 324.29 216.83 301.33 278.91 311.69 278.91 317.76 262.53 344.11 262.53 340.54 252.86 321.32 252.86 334.7 216.83 345.79 216.83 370.22 282.8 351.61 282.8 347.72 272.21"/>
            <polygon class="cls-2" points="618.56 282.66 590.32 220.94 579.99 220.94 579.99 278.82 589.64 278.82 589.64 241.68 608.43 282.66 604.21 282.66 593.49 259.29 593.47 282.66 576.15 282.66 576.15 217.11 592.79 217.11 621.03 278.82 631.36 278.82 631.36 220.94 621.71 220.94 621.71 257.3 617.87 248.91 617.87 217.11 635.2 217.11 635.2 282.66 618.56 282.66"/>
            <path class="cls-2" d="M534.67,282.49c-7.89,0-15.46-2.75-21.29-7.75-7.32-6.27-11.53-15.37-11.53-24.97,0-9.64,4.23-18.75,11.58-25.01,5.85-4.99,13.39-7.74,21.22-7.74s15.39,2.75,21.24,7.75c7.35,6.27,11.56,15.38,11.56,25,0,.68-.02,1.27-.05,1.79h-16.15c.13-6.48-2.06-11.51-6.54-14.97-2.82-2.18-6.4-3.38-10.08-3.38s-7.1,1.15-9.87,3.24c-4.2,3.16-6.64,7.95-6.7,13.15-.06,5.19,2.28,10.03,6.4,13.27,2.67,2.09,5.9,3.29,9.35,3.46h.11v3.6h-.28c-4.2-.22-8.13-1.68-11.39-4.23-4.94-3.88-7.77-9.68-7.77-15.91v-.21c.07-6.32,3.03-12.14,8.13-15.98,3.48-2.62,7.64-4,12.03-4s8.79,1.48,12.27,4.18c4.36,3.37,7.11,8.2,7.76,13.59l.08.63h9.07l-.07-.78c-.68-7.67-4.3-14.67-10.19-19.7-5.21-4.45-11.93-6.9-18.91-6.9s-13.68,2.45-18.89,6.89c-6.55,5.59-10.31,13.7-10.32,22.25,0,8.58,3.74,16.68,10.27,22.27,5.2,4.45,11.93,6.9,18.96,6.9s13.3-2.3,18.4-6.47c3.32-2.72,6.09-5.8,8.74-11.89h3.82c-2.55,7.51-7.5,12.39-10.29,14.67-5.73,4.68-13.07,7.26-20.67,7.26Z"/>
          </g>
          <circle class="cls-12" cx="34.25" cy="256.94" r="5.13"/>
          <circle class="cls-3" cx="174.26" cy="252.08" r="5.51"/>
          <circle class="cls-14" cx="398.14" cy="218.89" r="5.51"/>
          <circle class="cls-8" cx="536.05" cy="268.14" r="5.51"/>
        </g>
        <text class="cls-1" transform="translate(51.76 194.13)"><tspan x="0" y="0">REGIONAL CODEX</tspan></text>
        <g>
          <text class="cls-11" transform="translate(191.64 332.45)"><tspan x="0" y="0">SINGAPORE</tspan></text>
          <g>
            <line class="cls-5" x1="167.36" y1="322.19" x2="6.83" y2="322.19"/>
            <circle class="cls-12" cx="6.04" cy="322.19" r="5.48"/>
          </g>
          <g>
            <line class="cls-5" x1="468.85" y1="322.19" x2="629.39" y2="322.19"/>
            <circle class="cls-12" cx="630.17" cy="322.19" r="5.48"/>
          </g>
        </g>
      </g>
    </g>
  </g>
</svg>