<?xml version="1.0" encoding="UTF-8"?>
<svg id="Layer_2" data-name="Layer 2" xmlns="http://www.w3.org/2000/svg" viewBox="0 0 93.1 93.1">
  <defs>
    <style>
      .cls-1 {
        fill: #fff;
      }

      .cls-2 {
        fill: #0053de;
      }
    </style>
  </defs>
  <g id="Layer_1-2" data-name="Layer 1">
    <g>
      <path class="cls-2" d="M46.55,0h46.55v46.55c0,25.69-20.86,46.55-46.55,46.55h0C20.86,93.1,0,72.24,0,46.55H0C0,20.86,20.86,0,46.55,0Z" transform="translate(93.1 93.1) rotate(-180)"/>
      <g>
        <g>
          <path class="cls-1" d="M52.51,74.36h-14.06c-.85,0-1.53-.69-1.53-1.53s.69-1.53,1.53-1.53h14.06c.85,0,1.53.69,1.53,1.53s-.69,1.53-1.53,1.53Z"/>
          <path class="cls-1" d="M51.66,78.8h-12.35c-.85,0-1.53-.69-1.53-1.53s.69-1.53,1.53-1.53h12.35c.85,0,1.53.69,1.53,1.53s-.69,1.53-1.53,1.53Z"/>
          <path class="cls-1" d="M61.76,35.53c-.89-2.1-2.16-3.99-3.78-5.61-1.62-1.62-3.51-2.89-5.61-3.78-2.18-.92-4.49-1.39-6.87-1.39s-4.7.47-6.87,1.39c-2.1.89-3.99,2.16-5.61,3.78-1.62,1.62-2.89,3.51-3.78,5.61-.92,2.18-1.39,4.49-1.39,6.87,0,2.12.34,3.98,1.11,6.02.69,1.84,1.68,3.69,2.92,6.03.49.92.99,1.87,1.54,2.94.87,1.68,1.29,3.79,1.48,5.26.06.41.1.82.15,1.21.17,1.38.32,2.68.69,3.7.25.69.57,1.22,1,1.62.55.51,1.25.79,2.03.79h13.47c.78,0,1.48-.27,2.03-.79.43-.4.75-.93,1-1.62.36-1.02.52-2.32.69-3.7.05-.39.1-.8.15-1.21.2-1.47.62-3.58,1.48-5.26.55-1.07,1.06-2.02,1.54-2.94,1.25-2.34,2.23-4.19,2.92-6.03.77-2.04,1.11-3.89,1.11-6.02,0-2.38-.47-4.7-1.39-6.87Z"/>
          <path class="cls-1" d="M61.77,27.44c-.39,0-.78-.15-1.08-.45-.6-.6-.6-1.57,0-2.17l4.15-4.18c.6-.6,1.57-.6,2.17,0,.6.6.6,1.57,0,2.17l-4.15,4.18c-.3.3-.69.45-1.09.45Z"/>
          <path class="cls-1" d="M51.28,21.5c-.13,0-.26-.02-.39-.05-.82-.22-1.31-1.05-1.09-1.87l1.5-5.69c.22-.82,1.05-1.31,1.87-1.09.82.22,1.31,1.05,1.09,1.87l-1.5,5.69c-.18.69-.8,1.14-1.48,1.14Z"/>
          <path class="cls-1" d="M39.22,21.63c-.67,0-1.29-.45-1.48-1.13l-1.56-5.68c-.22-.82.26-1.66,1.07-1.88.82-.22,1.66.26,1.88,1.07l1.56,5.68c.22.82-.26,1.66-1.07,1.88-.14.04-.27.06-.41.06Z"/>
          <path class="cls-1" d="M28.85,27.79c-.39,0-.78-.15-1.07-.44l-4.2-4.13c-.6-.59-.61-1.56-.02-2.17.59-.6,1.56-.61,2.17-.02l4.2,4.13c.6.59.61,1.56.02,2.17-.3.3-.7.46-1.09.46Z"/>
          <path class="cls-1" d="M22.97,38.32c-.13,0-.26-.02-.38-.05l-5.7-1.47c-.82-.21-1.31-1.05-1.1-1.87.21-.82,1.05-1.31,1.87-1.1l5.7,1.47c.82.21,1.31,1.05,1.1,1.87-.18.69-.8,1.15-1.48,1.15Z"/>
          <path class="cls-1" d="M67.75,37.38c-.66,0-1.28-.43-1.47-1.1-.24-.81.23-1.66,1.04-1.9l5.65-1.64c.81-.24,1.66.23,1.9,1.04.24.81-.23,1.66-1.04,1.9l-5.65,1.64c-.14.04-.29.06-.43.06Z"/>
        </g>
        <path class="cls-2" d="M33.39,46.94c-.59,0-1.13-.4-1.28-.99-.29-1.12-.43-2.27-.43-3.43,0-1.59.27-3.15.8-4.63.51-1.43,1.25-2.77,2.2-3.96.94-1.18,2.06-2.2,3.33-3.02,1.29-.83,2.71-1.44,4.2-1.8.71-.17,1.42.26,1.6.97.17.71-.26,1.42-.97,1.6-1.2.29-2.34.78-3.39,1.46-1.03.66-1.94,1.49-2.7,2.44-.77.97-1.37,2.04-1.78,3.2-.43,1.2-.64,2.46-.64,3.74,0,.94.12,1.88.35,2.78.18.71-.25,1.43-.95,1.61-.11.03-.22.04-.33.04Z"/>
      </g>
    </g>
  </g>
</svg>