<?xml version="1.0" encoding="UTF-8"?>
<svg id="Layer_2" data-name="Layer 2" xmlns="http://www.w3.org/2000/svg" viewBox="0 0 198.04 142.97">
  <defs>
    <style>
      .cls-1 {
        fill: #fff;
      }

      .cls-2 {
        fill: #ee4d2d;
      }

      .cls-3 {
        fill: #136;
      }
    </style>
  </defs>
  <g id="Layer_1-2" data-name="Layer 1">
    <g>
      <path class="cls-3" d="M196.34,68.78l-30.55-20.15v-27.42c0-11.72-9.5-21.22-21.22-21.22H21.22C9.5,0,0,9.5,0,21.22v100.54c0,11.72,9.5,21.22,21.22,21.22h123.36c11.72,0,21.22-9.5,21.22-21.22v-27.37l30.48-19.24c2.33-1.47,2.36-4.85.06-6.37Z"/>
      <path class="cls-2" d="M137.43,38.5H62.98c-1.29,0-2.38.92-2.66,2.18-.99,4.47-4.98,7.8-9.74,7.8s-8.75-3.34-9.74-7.8c-.28-1.26-1.37-2.18-2.66-2.18h-8.19c-3.96,0-7.16,3.21-7.16,7.16v54.56c0,3.96,3.21,7.16,7.16,7.16h8.19c1.29,0,2.38-.92,2.66-2.18.99-4.47,4.98-7.8,9.74-7.8s8.75,3.34,9.74,7.8c.28,1.26,1.37,2.18,2.66,2.18h74.46c3.96,0,7.16-3.21,7.16-7.16v-54.56c0-3.96-3.21-7.16-7.16-7.16ZM51.88,91.08c0,.83-.67,1.5-1.5,1.5s-1.5-.67-1.5-1.5v-3.5c0-.83.67-1.5,1.5-1.5s1.5.67,1.5,1.5v3.5ZM51.88,81.65c0,.83-.67,1.5-1.5,1.5s-1.5-.67-1.5-1.5v-5.93c0-.83.67-1.5,1.5-1.5s1.5.67,1.5,1.5v5.93ZM51.88,69.79c0,.83-.67,1.5-1.5,1.5s-1.5-.67-1.5-1.5v-5.93c0-.83.67-1.5,1.5-1.5s1.5.67,1.5,1.5v5.93ZM51.88,57.93c0,.83-.67,1.5-1.5,1.5s-1.5-.67-1.5-1.5v-3.5c0-.83.67-1.5,1.5-1.5s1.5.67,1.5,1.5v3.5Z"/>
      <path class="cls-1" d="M87.49,72.21c-1.57,0-3.05-.29-4.42-.88-1.37-.58-2.58-1.37-3.61-2.36-1.04-.99-1.84-2.16-2.43-3.51-.58-1.35-.88-2.77-.88-4.25s.29-2.97.88-4.32c.58-1.35,1.38-2.52,2.4-3.51,1.01-.99,2.19-1.78,3.54-2.36,1.35-.58,2.77-.88,4.25-.88s2.97.29,4.32.88c1.35.58,2.52,1.37,3.51,2.36.99.99,1.78,2.16,2.36,3.51.58,1.35.88,2.79.88,4.32s-.29,2.9-.88,4.25c-.58,1.35-1.36,2.52-2.33,3.51-.97.99-2.1,1.78-3.41,2.36-1.3.58-2.7.88-4.18.88ZM90.46,94.41h-9.92l30.09-43.18h9.92l-30.09,43.18ZM87.22,57.98c-.9,0-1.66.3-2.29.91-.63.61-.94,1.38-.94,2.33s.31,1.65.94,2.26c.63.61,1.39.91,2.29.91s1.66-.3,2.29-.91c.63-.61.94-1.36.94-2.26s-.31-1.72-.94-2.33c-.63-.61-1.39-.91-2.29-.91ZM113.87,95.35c-1.53,0-2.96-.29-4.28-.88-1.33-.58-2.5-1.38-3.51-2.39-1.01-1.01-1.81-2.19-2.4-3.54-.58-1.35-.88-2.77-.88-4.25s.29-2.97.88-4.32c.58-1.35,1.38-2.52,2.4-3.51,1.01-.99,2.18-1.78,3.51-2.36,1.33-.58,2.75-.88,4.28-.88s2.96.29,4.28.88c1.33.58,2.48,1.37,3.47,2.36.99.99,1.78,2.16,2.36,3.51.58,1.35.88,2.79.88,4.32s-.29,2.9-.88,4.25c-.58,1.35-1.37,2.53-2.36,3.54-.99,1.01-2.15,1.81-3.47,2.39-1.33.58-2.76.88-4.28.88ZM113.87,81.05c-.9,0-1.66.3-2.29.91-.63.61-.94,1.38-.94,2.33s.31,1.66.94,2.29c.63.63,1.39.94,2.29.94s1.66-.31,2.29-.94c.63-.63.94-1.39.94-2.29s-.32-1.72-.94-2.33c-.63-.61-1.39-.91-2.29-.91Z"/>
    </g>
  </g>
</svg>